<?xml version="1.0" standalone="no"?>
<!DOCTYPE svg PUBLIC "-//W3C//DTD SVG 20010904//EN"
 "http://www.w3.org/TR/2001/REC-SVG-20010904/DTD/svg10.dtd">
<svg version="1.0" xmlns="http://www.w3.org/2000/svg"
 width="300.000000pt" height="300.000000pt" viewBox="0 0 300.000000 300.000000"
 preserveAspectRatio="xMidYMid meet">
<metadata>
Created by potrace 1.11, written by Peter Selinger 2001-2013
</metadata>
<g transform="translate(0.000000,300.000000) scale(0.100000,-0.100000)"
fill="#000000" stroke="none">
<path d="M627 2986 c-6 -14 16 -125 32 -161 32 -75 69 -142 98 -181 37 -48 38
-70 2 -38 -60 54 -269 336 -269 363 0 12 -36 24 -49 16 -12 -7 25 -118 68
-205 32 -65 78 -126 138 -187 54 -53 39 -62 -18 -10 -20 17 -58 50 -85 72 -26
22 -95 79 -152 128 -57 48 -106 87 -110 87 -4 0 -14 -5 -22 -10 -13 -8 -13
-12 0 -34 22 -37 168 -195 222 -241 47 -41 62 -61 53 -75 -2 -4 -89 35 -193
88 -129 66 -194 93 -206 89 -16 -7 -17 -10 -4 -30 12 -18 222 -169 253 -180 6
-3 7 -7 4 -11 -3 -3 -68 12 -144 34 -195 57 -215 43 -65 -44 44 -25 80 -51 80
-56 0 -6 -30 -10 -69 -10 -88 0 -104 -6 -90 -31 5 -10 14 -19 19 -19 5 0 41
-15 81 -34 l73 -33 -40 -7 c-121 -22 -136 -37 -89 -86 23 -24 24 -28 10 -40
-19 -16 -19 -54 0 -70 11 -9 12 -17 4 -31 -15 -28 -4 -50 45 -88 41 -32 44
-38 50 -93 14 -116 61 -237 137 -349 50 -74 176 -200 197 -197 11 2 19 -8 25
-34 11 -45 66 -98 105 -99 15 0 45 0 67 1 35 1 42 -3 59 -31 18 -31 19 -31 78
-25 56 5 59 4 70 -19 15 -33 54 -43 87 -22 57 35 92 49 107 43 14 -5 13 -9 -7
-24 -42 -32 -115 -55 -239 -76 -14 -2 -44 -9 -67 -15 -60 -16 -350 -6 -425 15
-13 4 -16 -1 -14 -21 3 -22 -1 -25 -28 -25 -17 0 -38 -5 -46 -10 -13 -9 -13
-11 0 -20 11 -8 4 -10 -27 -7 -45 4 -53 -2 -28 -23 17 -14 21 -35 5 -25 -13 8
-50 -4 -50 -16 0 -5 10 -9 22 -9 17 0 19 -3 10 -12 -25 -25 -9 -29 96 -23 59
3 157 8 217 11 61 3 134 7 163 8 58 3 81 -11 33 -20 -17 -4 -31 -10 -31 -14 0
-17 67 -34 134 -33 59 0 65 -1 39 -9 -18 -5 -33 -13 -33 -18 0 -17 201 -17
246 0 15 6 29 8 32 6 2 -3 -8 -31 -24 -63 -16 -32 -31 -62 -33 -67 -2 -5 11
-7 28 -4 36 5 39 -2 11 -27 -11 -10 -19 -20 -17 -22 2 -2 39 13 81 32 42 19
79 35 82 35 2 0 14 -21 27 -48 32 -65 87 -140 87 -117 0 13 11 8 45 -24 25
-23 50 -38 58 -35 8 3 21 -1 28 -8 8 -7 23 -20 33 -28 18 -14 19 -13 12 13
l-7 29 32 -23 32 -22 17 23 17 23 19 -22 c59 -66 57 -60 26 -68 -15 -4 -33 -6
-41 -4 -9 2 -12 -3 -8 -14 5 -12 -5 -21 -39 -35 -25 -11 -56 -20 -69 -20 -14
0 -25 -7 -28 -19 -5 -22 -93 -56 -103 -39 -4 7 -10 5 -15 -5 -14 -24 -104 -51
-127 -38 -15 8 -21 7 -26 -4 -4 -11 -23 -15 -81 -15 -41 0 -75 -3 -75 -7 0 -4
9 -25 20 -48 61 -127 259 -120 555 20 89 42 295 161 340 197 99 80 332 236
405 273 112 57 345 125 425 125 34 0 32 20 -2 21 -41 1 -74 8 -102 22 -22 11
-28 10 -42 -4 -17 -17 -108 -20 -142 -5 -14 7 -19 4 -24 -12 -4 -16 -16 -22
-53 -27 -27 -4 -54 -4 -60 0 -5 3 -10 2 -10 -4 0 -28 -83 -66 -139 -63 -16 2
-22 -2 -18 -13 9 -22 -103 -76 -128 -62 -11 6 -40 11 -65 12 -82 4 -189 83
-187 139 1 38 -28 101 -95 203 l-49 75 36 55 c49 74 114 143 134 143 20 0 109
-47 142 -75 45 -37 79 -89 69 -105 -18 -29 -10 -31 29 -9 48 26 66 65 57 117
-4 20 -7 57 -6 80 1 34 -5 52 -26 80 -24 31 -123 129 -184 182 -11 9 -20 21
-20 26 0 12 123 92 190 125 69 32 116 85 111 121 -1 13 63 60 114 83 109 49
145 65 152 67 26 5 107 55 105 63 -4 16 -29 10 -150 -33 -62 -22 -111 -35
-109 -29 4 12 125 97 202 143 22 13 56 36 75 53 28 23 32 32 23 42 -10 10 -21
9 -55 -6 -50 -22 -158 -92 -174 -113 -6 -8 -19 -13 -29 -11 -14 3 10 29 96
104 139 122 144 127 115 138 -19 8 -139 -73 -203 -135 -29 -29 -55 -50 -57
-47 -3 3 36 62 86 132 50 71 88 131 84 134 -20 20 -42 2 -106 -82 -83 -109
-97 -122 -112 -107 -7 7 3 41 36 120 51 121 52 127 32 135 -18 7 -35 -13 -76
-88 -43 -80 -53 -89 -36 -32 8 26 12 47 10 47 -2 0 1 12 7 26 11 31 3 65 -15
58 -6 -2 -25 -30 -42 -61 l-29 -56 -6 37 c-3 20 -8 39 -11 41 -10 10 -37 -7
-43 -26 -7 -21 -27 -26 -24 -6 5 41 -10 48 -38 18 -12 -13 -23 -17 -32 -11 -9
5 -23 2 -38 -7 -13 -9 -35 -16 -49 -17 -16 -1 -31 -11 -42 -30 -15 -25 -25
-30 -63 -31 -86 -4 -250 -120 -376 -267 -34 -39 -35 -53 -11 -128 12 -39 66
-147 99 -200 l23 -35 -38 35 c-78 72 -144 187 -200 349 -20 57 -49 126 -63
154 -27 48 -107 137 -125 137 -16 0 -80 76 -113 135 -18 33 -49 112 -68 175
-20 63 -50 161 -67 218 -27 89 -33 102 -46 91 -17 -14 -17 -100 -2 -179 12
-56 48 -171 59 -185 4 -6 5 -16 1 -22 -13 -21 -23 -8 -92 112 -9 17 -45 80
-80 140 -34 61 -74 130 -87 155 -35 63 -65 85 -76 56z m1068 -2223 c-16 -91
-16 -130 0 -146 30 -31 108 -82 120 -79 6 1 20 -7 30 -18 19 -21 55 -27 55 -9
0 6 9 8 22 3 12 -3 50 -6 85 -6 35 0 63 -1 63 -3 0 -10 -67 -35 -92 -35 -15 0
-28 -3 -28 -8 0 -4 -9 -13 -21 -20 -17 -11 -29 -11 -67 2 -26 8 -59 17 -75 20
-15 4 -45 22 -67 42 -68 62 -78 141 -35 272 8 23 15 12 10 -15z"/>
</g>
</svg>
